<svg xmlns="http://www.w3.org/2000/svg" xmlns:svg="http://www.w3.org/2000/svg" xmlns:xlink="http://www.w3.org/1999/xlink" id="svg2" width="1024pt" height="1024" version="1.1" viewBox="0 0 1024 768" xml:space="preserve"><metadata id="metadata58"/><defs id="defs56"><radialGradient id="radialGradient3638" cx="423.142" cy="334.999" r="816.385" fx="423.142" fy="334.999" gradientTransform="matrix(0.7558,0,0,1,81.3024,144)" gradientUnits="userSpaceOnUse" xlink:href="#aigrd3"/></defs><g id="Layer_x0020_3" style="fill-rule:nonzero;clip-rule:nonzero;stroke:#000;stroke-miterlimit:4"><radialGradient id="aigrd1" cx="963.695" cy="79.861" r="1436.621" fx="963.695" fy="79.861" gradientTransform="matrix(0.4269 0 0 0.6347 116.5728 139.3921)" gradientUnits="userSpaceOnUse"><stop style="stop-color:#222;stop-opacity:1" id="stop6" offset="0"/><stop style="stop-color:#000;stop-opacity:1" id="stop18" offset="1"/></radialGradient><path style="fill:url(#aigrd1);stroke:none" id="path20" d="M1024,768H0V0h1024v768z"/><radialGradient id="aigrd2" cx="423.142" cy="473.297" r="799.884" fx="423.142" fy="473.297" gradientTransform="matrix(0.7558,0,0,1,81.3024,144)" gradientUnits="userSpaceOnUse" xlink:href="#aigrd3"><stop style="stop-color:#fff" id="stop23" offset="0"/><stop style="stop-color:#a6a6a6;stop-opacity:1" id="stop33" offset="1"/></radialGradient><path style="opacity:.25;fill:url(#aigrd2);fill-opacity:1;stroke:none" id="path35" d="m 2.036,743.854 v 19.172 c 0,0 123.492,-149.83 358.881,-149.83 279.494,0 306.507,201.039 663.083,201.039 v -45.514 c -339.801,0 -394.867,-175.12 -627.687,-175.12 -267.578,0 -394.277,150.253 -394.277,150.253 z"/><radialGradient id="aigrd3" cx="423.142" cy="334.999" r="816.385" fx="423.142" fy="334.999" gradientTransform="matrix(0.7558 0 0 1 81.3024 0)" gradientUnits="userSpaceOnUse"><stop style="stop-color:#fff" id="stop38" offset="0"/><stop style="stop-color:#d2d2d2;stop-opacity:1" id="stop48" offset="1"/></radialGradient><path style="opacity:.25;fill:url(#radialGradient3638);stroke:none" id="path50" d="m 2.036,678.061 v 37.449 c 0,0 150.311,-175.414 358.881,-175.414 277.097,0 308.384,201.033 663.083,201.033 v -173.44 c -339.801,0 -408.33,-120.23 -613.917,-120.23 -205.594,0 -408.046,230.602 -408.046,230.602 z"/></g></svg>