<svg xmlns="http://www.w3.org/2000/svg" xmlns:svg="http://www.w3.org/2000/svg" xmlns:xlink="http://www.w3.org/1999/xlink" id="svg2" width="512" height="512" version="1.0" style="display:inline"><defs id="defs4"><linearGradient id="linearGradient7584"><stop id="stop7586" offset="0" style="stop-color:#171717;stop-opacity:1"/><stop id="stop7588" offset="1" style="stop-color:#000;stop-opacity:1"/></linearGradient><linearGradient id="linearGradient5965"><stop style="stop-color:#030303;stop-opacity:1" id="stop5967" offset="0"/><stop id="stop5973" offset=".5" style="stop-color:#090909;stop-opacity:1"/><stop style="stop-color:#000;stop-opacity:1" id="stop5969" offset="1"/></linearGradient><linearGradient id="linearGradient5932"><stop style="stop-color:#000;stop-opacity:.87450981" id="stop5934" offset="0"/><stop style="stop-color:#000;stop-opacity:0" id="stop5936" offset="1"/></linearGradient><linearGradient id="linearGradient5333"><stop style="stop-color:#fff;stop-opacity:.05" id="stop5335" offset="0"/><stop style="stop-color:#4c4c4c;stop-opacity:0" id="stop5337" offset="1"/></linearGradient><linearGradient id="linearGradient4694"><stop style="stop-color:#fff;stop-opacity:.03529412" id="stop4696" offset="0"/><stop style="stop-color:#4c4c4c;stop-opacity:0" id="stop4698" offset="1"/></linearGradient><linearGradient id="linearGradient6989"><stop style="stop-color:#000;stop-opacity:1" id="stop6991" offset="0"/><stop style="stop-color:#0f0f0f;stop-opacity:1" id="stop6993" offset="1"/></linearGradient><linearGradient id="linearGradient6790"><stop style="stop-color:#434343;stop-opacity:1" id="stop6792" offset="0"/><stop style="stop-color:#000;stop-opacity:0" id="stop6794" offset="1"/></linearGradient><linearGradient id="linearGradient6736"><stop style="stop-color:#000;stop-opacity:1" id="stop6738" offset="0"/><stop style="stop-color:#000;stop-opacity:1" id="stop6740" offset="1"/></linearGradient><linearGradient id="linearGradient6720"><stop style="stop-color:#303030;stop-opacity:1" id="stop6722" offset="0"/><stop style="stop-color:#000;stop-opacity:1" id="stop6724" offset="1"/></linearGradient><linearGradient id="linearGradient6702"><stop id="stop4688" offset="0" style="stop-color:#000;stop-opacity:0"/><stop id="stop6714" offset="1" style="stop-color:#fff;stop-opacity:0"/></linearGradient><linearGradient id="linearGradient6662"><stop style="stop-color:#010000;stop-opacity:1" id="stop6664" offset="0"/><stop style="stop-color:#000;stop-opacity:1" id="stop6666" offset="1"/></linearGradient><marker id="Arrow1Send" orient="auto" refX="0" refY="0" style="overflow:visible"><path id="path4730" d="M 0,0 5,-5 -12.5,0 5,5 0,0 z" transform="matrix(-0.2,0,0,-0.2,-1.2,0)" style="fill-rule:evenodd;stroke:#000;stroke-width:1pt;marker-start:none"/></marker><marker id="Arrow1Mstart" orient="auto" refX="0" refY="0" style="overflow:visible"><path id="path4721" d="M 0,0 5,-5 -12.5,0 5,5 0,0 z" transform="matrix(0.4,0,0,0.4,4,0)" style="fill-rule:evenodd;stroke:#000;stroke-width:1pt;marker-start:none"/></marker><marker id="Arrow1Lstart" orient="auto" refX="0" refY="0" style="overflow:visible"><path id="path4715" d="M 0,0 5,-5 -12.5,0 5,5 0,0 z" transform="matrix(0.8,0,0,0.8,10,0)" style="fill-rule:evenodd;stroke:#000;stroke-width:1pt;marker-start:none"/></marker><linearGradient id="linearGradient6742" x1="341.667" x2="470.198" y1="-253.407" y2="-253.407" gradientTransform="matrix(0.874106,0,0,1.0453135,43.679874,11.482781)" gradientUnits="userSpaceOnUse" xlink:href="#linearGradient6720"/><linearGradient id="linearGradient6796" x1="-32.527" x2="653.367" y1="294.918" y2="294.918" gradientUnits="userSpaceOnUse" xlink:href="#linearGradient6790"/><linearGradient id="linearGradient6987" x1="341.667" x2="470.198" y1="-253.407" y2="-253.407" gradientTransform="matrix(0.6520109,0,0,1.5543006,133.44336,136.96388)" gradientUnits="userSpaceOnUse" xlink:href="#linearGradient7584"/><linearGradient id="linearGradient4686" x1="159.542" x2="430.901" y1="443.138" y2="443.138" gradientUnits="userSpaceOnUse" xlink:href="#linearGradient6702"/><linearGradient id="linearGradient4700" x1="229.03" x2="393.284" y1="461.811" y2="461.811" gradientUnits="userSpaceOnUse" xlink:href="#linearGradient4694"/><linearGradient id="linearGradient4966" x1="229.03" x2="393.284" y1="461.811" y2="461.811" gradientUnits="userSpaceOnUse" spreadMethod="reflect" xlink:href="#linearGradient4694"/><linearGradient id="linearGradient5339" x1="271.286" x2="490.232" y1="294.127" y2="294.127" gradientUnits="userSpaceOnUse" xlink:href="#linearGradient5333"/><linearGradient id="linearGradient5938" x1="-245.064" x2="-62.329" y1="7.706" y2="7.706" gradientTransform="matrix(2.5245666,0,0,2.6282551,644.92825,162.55033)" gradientUnits="userSpaceOnUse" xlink:href="#linearGradient5932"/><linearGradient id="linearGradient5971" x1="159.542" x2="430.901" y1="443.138" y2="443.138" gradientUnits="userSpaceOnUse" spreadMethod="pad" xlink:href="#linearGradient5965"/><radialGradient id="radialGradient7582" cx="295.222" cy="443.138" r="135.679" fx="295.222" fy="443.138" gradientTransform="matrix(1,0,0,0.1356784,0,383.01346)" gradientUnits="userSpaceOnUse" xlink:href="#linearGradient6720"/><radialGradient id="radialGradient7611" cx="295.222" cy="443.138" r="135.679" fx="295.222" fy="443.138" gradientTransform="matrix(1,0,0,0.1356784,0,383.01346)" gradientUnits="userSpaceOnUse" xlink:href="#linearGradient6720"/><linearGradient id="linearGradient7613" x1="229.03" x2="393.284" y1="461.811" y2="461.811" gradientUnits="userSpaceOnUse" spreadMethod="reflect" xlink:href="#linearGradient4694"/><linearGradient id="linearGradient2913" x1="271.286" x2="490.232" y1="294.127" y2="294.127" gradientTransform="matrix(1.0217389,0,0,1.0105488,-8.1719712,-6.8195787)" gradientUnits="userSpaceOnUse" xlink:href="#linearGradient5333"/><linearGradient id="linearGradient2916" x1="-245.064" x2="-62.329" y1="7.706" y2="7.706" gradientTransform="matrix(2.5891218,0,0,2.7050059,653.14704,159.9845)" gradientUnits="userSpaceOnUse" xlink:href="#linearGradient5932"/></defs><metadata id="metadata7"/><g id="layer2" style="display:inline"><rect style="fill:#303030;fill-opacity:1;stroke:none;display:inline" id="rect6684" width="473.599" height="321.92" x="18.594" y="19.852"/></g><g id="layer15" style="display:none"><rect style="opacity:0;fill:#e6e6e6;fill-opacity:1;fill-rule:nonzero;stroke:none;display:inline" id="rect3899" width="342.587" height="342.629" x="86.71" y="14.319"/><rect style="fill:#fff;fill-opacity:1;fill-rule:nonzero;stroke:none;display:inline" id="rect3899-5" width="342.587" height="342.629" x="86.71" y="14.319"/></g><g id="layer6" style="display:inline"><path style="fill:url(#linearGradient5971);fill-opacity:1;fill-rule:nonzero;stroke:none" id="path6944" d="m 430.90102,443.13766 a 135.67928,18.408747 0 1 1 -271.35855,0 135.67928,18.408747 0 1 1 271.35855,0 z" transform="matrix(0.01302703,-0.3700754,8.066322,-0.0237182,-3322.837,581.39212)"/><path style="fill:url(#linearGradient4686);fill-opacity:1;fill-rule:nonzero;stroke:none;display:inline" id="path4684" d="m 430.90102,443.13766 a 135.67928,18.408747 0 1 1 -271.35855,0 135.67928,18.408747 0 1 1 271.35855,0 z" transform="matrix(0.01219366,-0.2777519,7.5503003,-0.01780117,-2984.4223,654.88677)"/></g><g id="layer14" style="display:inline"><path style="fill:none;stroke:#0f0626;stroke-width:3.4000001;stroke-linecap:round;stroke-linejoin:miter;stroke-miterlimit:4;stroke-opacity:.9254902;stroke-dasharray:none;marker-mid:none" id="path5997" d="m 113.22547,451.27721 c -6.48144,25.47482 27.77284,36.00307 33.46034,37.48107 75.48368,19.61581 142.61203,18.18957 201.82073,2.0728 19.20235,-5.22693 38.29352,-12.81118 45.54545,-22.87742 8.91645,-12.37672 -0.92272,-23.26137 -0.92272,-23.26137"/></g><g id="layer10" style="display:inline"><g id="g7591" transform="translate(0,-2.1213203)"><path id="path6716" d="m 430.90102,443.13766 a 135.67928,18.408747 0 1 1 -271.35855,0 135.67928,18.408747 0 1 1 271.35855,0 z" transform="matrix(0.01219366,-0.2777519,7.5503003,-0.01780117,-3095.3084,545.23419)" style="fill:url(#radialGradient7611);fill-opacity:1;fill-rule:nonzero;stroke:none;display:inline"/><path id="path4964" d="m 316.59702,421.17478 c 0,0 58.23544,7.94555 73.90264,26.394 24.79157,29.19259 -118.30811,67.5501 -242.96933,33.90089 213.50314,-1.39087 169.09283,-60.31728 169.09283,-60.31728" style="fill:url(#linearGradient7613);fill-opacity:1;fill-rule:evenodd;stroke:none;display:inline"/></g></g><g id="layer5" style="display:inline"><rect style="fill:#000;fill-opacity:.98453603;fill-rule:nonzero;stroke:url(#linearGradient6987);stroke-width:30;stroke-linecap:round;stroke-linejoin:round;stroke-miterlimit:4;stroke-opacity:1;stroke-dasharray:none;stroke-dashoffset:0;display:inline" id="rect6686" width="72.335" height="30.264" x="361.948" y="-272.039" transform="matrix(0,1,-1,0,0,0)"/></g><g id="layer13" style="display:inline"><rect style="fill:url(#linearGradient2916);fill-opacity:1;fill-rule:nonzero;stroke:none" id="rect5930" width="473.126" height="321.871" x="18.645" y="19.893"/><path style="fill:url(#linearGradient2913);fill-opacity:1;fill-rule:evenodd;stroke:none;display:inline" id="path5331" d="m 492.23643,341.65103 -222.74382,-0.21858 c 0,0 42.71861,-8.28882 90.56766,-25.15824 28.31396,-9.98224 57.59439,-24.1182 83.13673,-38.1986 45.98594,-25.35007 49.03937,-38.90668 49.03937,-38.90668 l 6e-5,102.4821 z"/></g><g id="layer9" style="display:inline"><path style="fill:none;stroke:#000;stroke-width:22.07362747;stroke-linecap:round;stroke-linejoin:round;stroke-miterlimit:4;stroke-opacity:1;stroke-dasharray:none;display:inline" id="path5134" d="m 416.69139,186.74564 c -77.95059,0 -77.95059,0 -77.95059,0 l 0,73.23957 80.00192,0"/><path style="fill:none;stroke:#000;stroke-width:22.07362747;stroke-linecap:round;stroke-linejoin:round;stroke-miterlimit:4;stroke-opacity:1;stroke-dasharray:none;display:inline" id="path5132" d="m 221.52501,259.96552 0,-74.30876 75.89924,74.67652 0,-73.6827"/><g style="fill:none;stroke:#000;stroke-width:25.32735443;stroke-miterlimit:4;stroke-opacity:1;stroke-dasharray:none;display:inline" id="g5128" transform="matrix(1.0637273,0,0,0.7140646,-87.846677,11.859872)"><path id="path5130" d="m 181.27307,243.94727 0,42.42561 69.52825,61.54333 0,-103.59063" style="fill:none;stroke:#000;stroke-width:25.32735443;stroke-linecap:round;stroke-linejoin:round;stroke-miterlimit:4;stroke-opacity:1;stroke-dasharray:none"/></g><path style="fill:none;stroke:#000;stroke-width:21.4314537;stroke-linecap:round;stroke-linejoin:round;stroke-miterlimit:4;stroke-opacity:1;stroke-dasharray:none;display:inline" id="path5136" d="m 106.33831,159.40077 0,-72.146954 73.69116,72.504004 0,-71.539108"/><path style="fill:none;stroke:#000;stroke-width:21.4314537;stroke-linecap:round;stroke-linejoin:round;stroke-miterlimit:4;stroke-opacity:1;stroke-dasharray:none;display:inline" id="path5138" d="m 219.23536,92.259872 0,71.123858 77.68903,0 -2.0092,-71.123858 c -75.6828,0 -75.67983,0 -75.67983,0 z"/></g><g id="layer4" style="display:inline"><g style="fill:none;display:inline" id="g5142" transform="matrix(1.0637273,0,0,0.7140646,-87.924897,11.633929)"><path id="path5144" d="m 181.27307,243.94727 0,42.42561 69.52825,61.54333 0,-103.59063" style="fill:none;stroke:#f2eb41;stroke-width:19.83890915;stroke-linecap:round;stroke-linejoin:round;stroke-miterlimit:4;stroke-opacity:1;stroke-dasharray:none"/></g><path style="fill:none;stroke:#f2eb41;stroke-width:17.29026794;stroke-linecap:round;stroke-linejoin:round;stroke-miterlimit:4;stroke-opacity:1;stroke-dasharray:none;display:inline" id="path5146" d="m 221.44679,259.73958 0,-74.30877 75.89925,74.67651 0,-73.68269"/><path style="fill:none;stroke:#f2eb41;stroke-width:17.29026794;stroke-linecap:round;stroke-linejoin:round;stroke-miterlimit:4;stroke-opacity:1;stroke-dasharray:none;display:inline" id="path5148" d="m 416.61319,186.51969 c -77.95061,0 -77.95061,0 -77.95061,0 l 0,73.23958 80.00193,0"/><path style="fill:none;stroke:#00df00;stroke-width:16.78725243;stroke-linecap:round;stroke-linejoin:round;stroke-miterlimit:4;stroke-opacity:1;stroke-dasharray:none;display:inline" id="path5150" d="m 106.26238,159.1814 0,-72.146955 73.69115,72.503995 0,-71.539084"/><path style="fill:none;stroke:#00df00;stroke-width:16.78725243;stroke-linecap:round;stroke-linejoin:round;stroke-miterlimit:4;stroke-opacity:1;stroke-dasharray:none;display:inline" id="path5152" d="m 219.15941,92.040508 0,71.123862 77.68904,0 -2.00919,-71.123862 c -75.68283,0 -75.67985,0 -75.67985,0 z"/></g><g id="layer7" style="display:none"><g style="display:inline" id="g3903" transform="matrix(0.9560363,0,0,0.9560363,-6.710991,-337.27245)"><g id="g3905" transform="matrix(1.0081199,0,0,1.0081199,-11.487266,-121.24134)" style="fill:none"><path style="fill:none;stroke:#0f0;stroke-width:19.83890915;stroke-linecap:round;stroke-linejoin:miter;stroke-miterlimit:4;stroke-opacity:1;stroke-dasharray:none" id="path3907" d="m 83.455645,199.50003 101.674295,0"/><path style="fill:none;stroke:#0f0;stroke-width:19.83890915;stroke-linecap:round;stroke-linejoin:round;stroke-miterlimit:4;stroke-opacity:1;stroke-dasharray:none" id="path3909" d="m 81.687109,243.94727 99.585961,0 0,42.42561 79.06591,61.54333 0,-103.59063"/><path style="fill:none;stroke:#0f0;stroke-width:19.83890915;stroke-linecap:round;stroke-linejoin:miter;stroke-miterlimit:4;stroke-opacity:1;stroke-dasharray:none" id="path3911" d="M 87.323416,283.46826 175.10772,160.81511"/></g><path id="path3913" d="m 289.84756,229.03542 0,-104.90947 71.93153,105.42866 0,-104.02559" style="fill:none;stroke:#0f0;stroke-width:20;stroke-linecap:round;stroke-linejoin:round;stroke-miterlimit:4;stroke-opacity:1;stroke-dasharray:none"/><path id="path3915" d="m 472.59255,125.66322 c -73.87564,0 -73.87564,0 -73.87564,0 l 0,103.4 75.81973,0" style="fill:none;stroke:#0f0;stroke-width:20;stroke-linecap:round;stroke-linejoin:round;stroke-miterlimit:4;stroke-opacity:1;stroke-dasharray:none"/></g></g><g id="layer3" style="display:inline"><rect style="fill:none;stroke:#040404;stroke-width:24.66699982;stroke-linecap:round;stroke-linejoin:round;stroke-miterlimit:4;stroke-opacity:1;stroke-dasharray:none;stroke-dashoffset:0;display:inline" id="rect6660" width="485.733" height="337.33" x="14.18" y="14.18"/></g><g id="layer8" style="display:inline"><rect style="fill:none;stroke:#100626;stroke-width:3;stroke-linecap:round;stroke-linejoin:round;stroke-miterlimit:4;stroke-opacity:.89803922;stroke-dasharray:none;stroke-dashoffset:0;display:inline" id="rect3888" width="485.733" height="337.33" x="13.819" y="14.179"/></g></svg>